<?xml version="1.0" encoding="UTF-8" standalone="no"?>
<!-- Created with Inkscape (http://www.inkscape.org/) -->

<svg
   xmlns:dc="http://purl.org/dc/elements/1.1/"
   xmlns:cc="http://creativecommons.org/ns#"
   xmlns:rdf="http://www.w3.org/1999/02/22-rdf-syntax-ns#"
   xmlns:svg="http://www.w3.org/2000/svg"
   xmlns="http://www.w3.org/2000/svg"
   xmlns:sodipodi="http://sodipodi.sourceforge.net/DTD/sodipodi-0.dtd"
   xmlns:inkscape="http://www.inkscape.org/namespaces/inkscape"
   width="16.367939mm"
   height="16.367939mm"
   viewBox="0 0 57.996634 57.996633"
   id="svg2"
   version="1.1"
   inkscape:version="0.91 r13725"
   sodipodi:docname="mercator.svg"
   inkscape:export-filename="/home/hans/development/crypto/script-sandbox/app/assets/img/einstein.png"
   inkscape:export-xdpi="310.36282"
   inkscape:export-ydpi="310.36282">
  <defs
     id="defs4" />
  <sodipodi:namedview
     id="base"
     pagecolor="#ffffff"
     bordercolor="#666666"
     borderopacity="1.0"
     inkscape:pageopacity="0.0"
     inkscape:pageshadow="2"
     inkscape:zoom="9.4143394"
     inkscape:cx="38.483911"
     inkscape:cy="29.097064"
     inkscape:document-units="px"
     inkscape:current-layer="layer1"
     showgrid="false"
     inkscape:window-width="1366"
     inkscape:window-height="732"
     inkscape:window-x="0"
     inkscape:window-y="17"
     inkscape:window-maximized="1"
     fit-margin-top="0"
     fit-margin-left="0"
     fit-margin-right="0"
     fit-margin-bottom="0" />
  <metadata
     id="metadata7">
    <rdf:RDF>
      <cc:Work
         rdf:about="">
        <dc:format>image/svg+xml</dc:format>
        <dc:type
           rdf:resource="http://purl.org/dc/dcmitype/StillImage" />
        <dc:title></dc:title>
      </cc:Work>
    </rdf:RDF>
  </metadata>
  <g
     inkscape:groupmode="layer"
     id="layer4"
     inkscape:label="bg"
     sodipodi:insensitive="true"
     style="display:none">
    <circle
       style="opacity:1;fill:#19bd9d;fill-opacity:1;stroke:#19bd9d;stroke-width:11.12100029;stroke-miterlimit:2;stroke-dasharray:none;stroke-opacity:1"
       id="path4294"
       cx="28.892096"
       cy="28.998316"
       r="21.321251" />
  </g>
  <g
     style="display:inline"
     inkscape:label="hide_leaf"
     id="g4296"
     inkscape:groupmode="layer"
     sodipodi:insensitive="true">
    <circle
       r="21.321251"
       cy="28.998316"
       cx="28.892096"
       id="circle4298"
       style="opacity:1;fill:#2c3f51;fill-opacity:1;stroke:#2c3f51;stroke-width:11.12100029;stroke-miterlimit:2;stroke-dasharray:none;stroke-opacity:1" />
  </g>
  <g
     inkscape:groupmode="layer"
     id="layer2"
     inkscape:label="Layer 2"
     transform="translate(2.8711224,2.707056)"
     style="display:inline"
     sodipodi:insensitive="true">
    <path
       style="opacity:0.99299999;fill:#2c3e50;fill-opacity:1;stroke:none;stroke-width:10;stroke-miterlimit:4;stroke-dasharray:none;stroke-opacity:1"
       d="M 28.998047,0 A 28.998316,28.998316 0 0 0 0,28.998047 28.998316,28.998316 0 0 0 28.998047,57.996094 28.998316,28.998316 0 0 0 57.996094,28.998047 28.998316,28.998316 0 0 0 28.998047,0 Z M 13.046875,10.455078 c 25.721009,0.921818 35.639591,15.876877 30.660156,29.222656 -1.410727,3.713307 -2.910816,5.745615 -6.064453,7.863282 0.129468,-0.534303 0.26237,-1.072401 0.363281,-1.621094 C 39.870969,35.507041 36.335871,22.980708 19.050781,16.060547 32.803175,23.989308 38.352646,38.095065 31.939453,47.201172 21.023756,48.86442 13.046875,39.833444 13.046875,29.429688 l 0,-18.97461 z"
       transform="translate(-2.8711224,-2.7070579)"
       id="path5356"
       inkscape:connector-curvature="0" />
  </g>
  <g
     inkscape:groupmode="layer"
     id="layer3"
     inkscape:label="leaf"
     sodipodi:insensitive="true"
     style="display:inline" />
  <g
     inkscape:groupmode="layer"
     id="layer1"
     inkscape:label="compass">
    <path
       inkscape:connector-curvature="0"
       style="fill:#ffffff"
       d="m 24.43054,35.849987 9.135556,-4.567777 -9.135556,-4.567787 0,9.135564 z m 13.703343,-21.090304 0,19.341701 -18.271131,9.135565 0,-19.341702 z M 48.41139,28.998316 q 0,-5.281496 -2.605063,-9.742217 -2.605062,-4.460731 -7.065793,-7.065794 -4.460721,-2.6050615 -9.742217,-2.6050615 -5.281495,0 -9.742216,2.6050615 -4.460732,2.605063 -7.065793,7.065794 -2.6050623,4.460721 -2.6050623,9.742217 0,5.281495 2.6050623,9.742216 2.605061,4.460732 7.065793,7.065793 4.460721,2.605063 9.742216,2.605063 5.281496,0 9.742217,-2.605063 4.460731,-2.605061 7.065793,-7.065793 2.605063,-4.460721 2.605063,-9.742216 z m 7.993613,0 q 0,7.458332 -3.675633,13.756871 -3.675644,6.298539 -9.974181,9.974181 -6.298539,3.675633 -13.756872,3.675633 -7.458332,0 -13.756871,-3.675633 Q 8.9429091,49.053726 5.2672639,42.755187 1.591631,36.456648 1.591631,28.998316 q 0,-7.458333 3.6756329,-13.756872 3.6756452,-6.2985371 9.9741821,-9.9741818 6.298539,-3.6756329 13.756871,-3.6756329 7.458333,0 13.756872,3.6756329 6.298537,3.6756447 9.974181,9.9741818 3.675633,6.298539 3.675633,13.756872 z"
       id="path4204" />
  </g>
</svg>
